<svg width="200" height="200" viewBox="0 0 200 200" fill="none" xmlns="http://www.w3.org/2000/svg">
<path d="M153.387 134.407C163.768 137.188 174.454 131.018 177.236 120.638C180.017 110.256 173.849 99.5704 163.466 96.789L134.223 88.9541C128.422 87.4 124.982 81.4375 126.535 75.6393L134.407 46.2631C137.188 35.8821 131.018 25.196 120.637 22.4146C110.257 19.6331 99.57 25.8031 96.7885 36.1837C96.7885 36.1837 91.4684 56.0402 85.8857 76.879C80.4512 97.1607 92.4728 118.012 112.751 123.468L153.387 134.407V134.407ZM150.352 70.7642L169.094 75.7863C191.068 81.6751 204.125 104.293 198.238 126.265C192.35 148.237 169.732 161.296 147.76 155.409C147.756 155.408 147.753 155.407 147.749 155.406C147.749 155.406 127.917 150.067 107.1 144.466C75.2362 135.89 56.3417 103.124 64.883 71.2521C70.4662 50.4132 75.7863 30.5567 75.7863 30.5567C81.6746 8.58455 104.292 -4.47461 126.264 1.41192C148.237 7.30066 161.296 29.9183 155.409 51.8901L150.352 70.7642V70.7642Z" fill="white"/>
<path d="M103.722 80.6415L46.2631 65.2442C35.8821 62.4649 25.196 68.6349 22.4146 79.0137C19.6331 89.3943 25.8031 100.081 36.1837 102.862L65.4278 110.699C71.2278 112.253 74.6698 118.213 73.1152 124.014L65.2455 153.388C62.4623 163.769 68.6322 174.455 79.0132 177.237C89.3938 180.018 100.08 173.85 102.861 163.467L118.588 104.781C121.36 94.4296 115.218 83.7912 104.868 81.0168H104.865C104.473 80.9121 104.092 80.7872 103.722 80.6415M49.3002 128.887L30.5545 123.864C8.58455 117.978 -4.47461 95.3585 1.41192 73.3863C7.29845 51.4141 29.9183 38.355 51.8901 44.2437L110.509 59.9501C110.972 60.0733 111.418 60.2243 111.846 60.4044C132.977 66.83 145.349 88.9126 139.589 110.408L123.864 169.094C117.977 191.068 95.3581 204.126 73.3859 198.239C51.4137 192.351 38.3545 169.733 44.2433 147.761L49.3002 128.887V128.887Z" fill="white"/>
</svg>
